<?xml version="1.0" encoding="UTF-8"?>
<!DOCTYPE svg PUBLIC "-//W3C//DTD SVG 1.1//EN" "http://www.w3.org/Graphics/SVG/1.1/DTD/svg11.dtd">
<!-- Creator: CorelDRAW 2017 -->
<svg xmlns="http://www.w3.org/2000/svg" xml:space="preserve" width="27mm" height="27mm" version="1.1" style="shape-rendering:geometricPrecision; text-rendering:geometricPrecision; image-rendering:optimizeQuality; fill-rule:evenodd; clip-rule:evenodd"
viewBox="0 0 2700 2700"
 xmlns:xlink="http://www.w3.org/1999/xlink">
 <defs>
  <style type="text/css">
   <![CDATA[
    .str0 {stroke:black;stroke-width:150;stroke-miterlimit:22.9256}
    .fil0 {fill:none}
    .fil1 {fill:black}
   ]]>
  </style>
 </defs>
 <g id="Слой_x0020_1">
  <metadata id="CorelCorpID_0Corel-Layer"/>
  <g id="_2089179944848">
   <path class="fil0 str0" d="M1360.57 148.36c662.74,0 1200,537.26 1200,1200 0,662.74 -537.26,1200 -1200,1200 -662.74,0 -1200,-537.26 -1200,-1200 0,-662.74 537.26,-1200 1200,-1200z"/>
   <path class="fil1" d="M1550.2 1753.39l-377.88 0 0 -345.21 386.04 0c62.62,0 123.34,46.58 147.58,102.5 20.39,46.93 19.49,91.29 0.86,138.35 -22.3,56.18 -85.62,104.36 -156.6,104.36zm-48.92 -464.84l-328.96 0 0 -345.21 320.81 0c50.78,0 88.02,23.06 116.12,46.93 10.77,9.16 27.67,34.13 34.35,47.21 18,35.27 18.04,53.2 18.04,90.68 0,80.71 -79.7,160.39 -160.36,160.39zm-331.68 -521.95l0 59.8 -176.72 0c-72.02,0 -73.32,116.94 2.72,116.94l57.1 0 0 810.05 -57.1 0c-76.04,0 -74.74,116.94 -2.72,116.94l176.72 0 0 59.79c0,29.57 26.3,57.1 59.84,57.1 28.97,0 57.05,-25.53 57.05,-54.38l0 -62.51 114.18 0c0,40.4 -8.59,116.89 59.82,116.89 68.43,0 59.77,-76.49 59.77,-116.89 63.83,0 94.74,-0.44 154.12,-28.06 163.67,-76.15 232.78,-312.02 74.94,-470.12 -11.93,-11.97 -41.25,-38.43 -57.76,-42.79 4.01,-15.21 52.19,-44.69 77.68,-134.32 17.93,-62.84 13.26,-126.65 -8.11,-182.63 -20.05,-52.37 -50.39,-89.43 -89.45,-122.64 -49.43,-42.11 -94.87,-50.2 -151.42,-63.37 0,-27.97 2.85,-60.91 -5.78,-81.14 -24.03,-56.25 -113.81,-45.14 -113.81,29.5l0 51.64 -114.18 0 0 -62.51c0,-28.94 -26.96,-54.38 -59.77,-54.38 -29.61,0 -57.12,27.48 -57.12,57.09z"/>
  </g>
 </g>
</svg>
