<?xml version="1.0" encoding="UTF-8"?>
<!DOCTYPE svg PUBLIC "-//W3C//DTD SVG 1.1//EN" "http://www.w3.org/Graphics/SVG/1.1/DTD/svg11.dtd">
<!-- Creator: CorelDRAW 2017 -->
<svg xmlns="http://www.w3.org/2000/svg" xml:space="preserve" width="60mm" height="7mm" version="1.1" style="shape-rendering:geometricPrecision; text-rendering:geometricPrecision; image-rendering:optimizeQuality; fill-rule:evenodd; clip-rule:evenodd"
viewBox="0 0 6000 700"
 xmlns:xlink="http://www.w3.org/1999/xlink">
 <defs>
  <style type="text/css">
   <![CDATA[
    .fil1 {fill:none}
    .fil3 {fill:#203E72}
    .fil4 {fill:#2A4574}
    .fil0 {fill:#103576;fill-rule:nonzero}
    .fil2 {fill:red;fill-rule:nonzero}
   ]]>
  </style>
     <clipPath id="id0">
      <path d="M27.01 54.15l560.02 0 0 609.57 -560.02 0 0 -609.57zm0 0z"/>
     </clipPath>
     <clipPath id="id1">
      <path d="M157.49 358.99l429.54 0 0 304.73 -429.54 0 0 -304.73zm0 0z"/>
     </clipPath>
 </defs>
 <g id="Слой_x0020_1">
  <metadata id="CorelCorpID_0Corel-Layer"/>
  <g id="_3044505261712">
   <g>
    <g>
    </g>
    <g style="clip-path:url(#id0)">
     <g>
      <path class="fil0" d="M538.04 383.82c-9.45,-9.45 -19.88,-17.63 -31.16,-24.44 11.28,-6.85 21.71,-15.03 31.16,-24.47 15.07,-15.08 26.95,-32.68 35.23,-52.27 8.57,-20.29 12.93,-41.82 12.93,-64.02 0,-22.2 -4.36,-43.75 -12.93,-64.04 -8.28,-19.59 -20.13,-37.17 -35.23,-52.27 -15.1,-15.1 -32.71,-26.95 -52.3,-35.23 -20.29,-8.57 -41.81,-12.93 -64.01,-12.93l-290.18 0 0 88.56 -104.38 0 0 521.89 151.82 0 0 -281.5 222.99 0 0 -47.45 -270.43 0 0 281.51 -56.94 0 0 -427.01 56.94 0 0 104.39 270.43 0 0 -151.83 -222.99 0 0 -41.12 242.74 0c64.53,0 117.03,52.5 117.03,117.03 0,55.01 -38.33,101.24 -89.33,113.7l0 54.08c51,12.47 89.33,58.72 89.33,113.73 0,64.53 -52.5,117 -117.03,117l-195.29 0 0 47.45 195.29 0c22.2,0 43.72,-4.34 64.01,-12.94 19.59,-8.28 37.2,-20.13 52.3,-35.23 15.07,-15.1 26.95,-32.68 35.23,-52.27 8.57,-20.29 12.93,-41.84 12.93,-64.04 0,-22.17 -4.36,-43.72 -12.93,-64.01 -8.28,-19.59 -20.16,-37.17 -35.23,-52.27zm-183.5 -193.67l0 56.94 -175.55 0 0 -56.94 175.55 0zm0 0z"/>
     </g>
    </g>
    <path class="fil1" d="M27.01 54.15l560.02 0 0 609.57 -560.02 0 0 -609.57zm0 0z"/>
    <g>
    </g>
    <g style="clip-path:url(#id1)">
     <g id="_3044505271312">
      <path class="fil2" d="M538.04 383.82c-9.45,-9.45 -19.88,-17.63 -31.16,-24.44 11.28,-6.85 21.71,-15.03 31.16,-24.47 15.07,-15.08 26.95,-32.68 35.23,-52.27 8.57,-20.29 12.93,-41.82 12.93,-64.02 0,-22.2 -4.36,-43.75 -12.93,-64.04 -8.28,-19.59 -20.13,-37.17 -35.23,-52.27 -15.1,-15.1 -32.71,-26.95 -52.3,-35.23 -20.29,-8.57 -41.81,-12.93 -64.01,-12.93l-290.18 0 0 88.56 -104.38 0 0 521.89 151.82 0 0 -281.5 222.99 0 0 -47.45 -270.43 0 0 281.51 -56.94 0 0 -427.01 56.94 0 0 104.39 270.43 0 0 -151.83 -222.99 0 0 -41.12 242.74 0c64.53,0 117.03,52.5 117.03,117.03 0,55.01 -38.33,101.24 -89.33,113.7l0 54.08c51,12.47 89.33,58.72 89.33,113.73 0,64.53 -52.5,117 -117.03,117l-195.29 0 0 47.45 195.29 0c22.2,0 43.72,-4.34 64.01,-12.94 19.59,-8.28 37.2,-20.13 52.3,-35.23 15.07,-15.1 26.95,-32.68 35.23,-52.27 8.57,-20.29 12.93,-41.84 12.93,-64.04 0,-22.17 -4.36,-43.72 -12.93,-64.01 -8.28,-19.59 -20.16,-37.17 -35.23,-52.27zm-183.5 -193.67l0 56.94 -175.55 0 0 -56.94 175.55 0zm0 0z"/>
     </g>
    </g>
    <path class="fil1" d="M157.49 358.99l429.54 0 0 304.73 -429.54 0 0 -304.73zm0 0z"/>
   </g>
   <g>
    <path class="fil3" d="M935.6 324.58l-110.38 0 0 -3.6 4.32 0c8.36,0 14.83,-3.6 19.42,-10.79 1.88,-3.06 2.96,-6.65 3.23,-10.78l0 -194.15c-0.27,-6.2 -2.52,-11.32 -6.83,-15.46 -4.32,-4.31 -9.62,-6.47 -15.82,-6.47l-4.32 0 0 -3.23 101.39 0c26.78,0 48.27,4.94 64.36,14.74 15.99,9.61 24.17,24.63 24.44,44.94 -0.27,10.33 -2.51,19.32 -6.83,26.96 -7.73,14.38 -19.77,22.65 -36.31,24.81 17.97,1.44 32.71,8.18 44.22,20.13 11.69,11.78 17.62,26.6 17.62,44.59 0,22.1 -8.9,39 -26.61,50.69 -17.52,11.77 -41.52,17.62 -71.9,17.62zm23.73 -180.49c-0.28,-32.8 -15.1,-49.25 -44.58,-49.25l-10.43 0 0 213.55 16.18 0c0.18,0 0.45,0 0.72,0 16,0 28.85,-4.49 38.47,-13.65 9.53,-9.36 14.38,-23.56 14.38,-42.79 0,-19.14 -5.4,-33.44 -16.18,-42.78 -10.78,-9.35 -24.63,-14.02 -41.35,-14.02l0 -2.88c11.96,0 22.03,-3.95 30.21,-11.87 8.08,-7.91 12.3,-19.95 12.58,-36.31zm0 0z"/>
   </g>
   <g>
    <path class="fil3" d="M1285.34 118.57l-5.02 0c-4.32,0 -8.09,1.35 -11.15,3.95 -3.15,2.7 -4.68,6.02 -4.68,10.07l0 115.76c0,25.17 -7.81,44.94 -23.36,59.33 -15.37,14.38 -38.29,21.57 -68.68,21.57 -30.19,0 -53.83,-6.92 -70.82,-20.86 -16.81,-14.1 -25.17,-33.88 -25.17,-59.32l0 -116.12c0,-4.05 -1.7,-7.37 -5.03,-10.07 -3.15,-2.88 -6.83,-4.31 -11.15,-4.31l-5.03 0 0 -3.6 92.04 0 0 3.6 -5.03 0c-4.32,0 -8.09,1.43 -11.15,4.31 -2.88,2.7 -4.31,6.02 -4.31,10.07l0 113.6c0,21.58 4.85,38.47 14.74,50.7 9.79,12.04 23.73,17.97 41.7,17.97 17.98,0 32.09,-5.75 42.42,-17.25 10.25,-11.5 15.47,-27.33 15.47,-47.46l0 -117.56c-0.28,-4.32 -1.98,-7.73 -5.04,-10.43 -2.87,-2.6 -6.47,-3.95 -10.78,-3.95l-4.67 0 0 -3.6 64.7 0 0 3.6zm0 0z"/>
   </g>
   <g>
    <path class="fil3" d="M1303.67 320.98l4.31 0c5.48,0 10.16,-1.8 14.02,-5.39 4.04,-3.6 6.11,-7.91 6.11,-12.95l0 -165.74c0,-5.04 -2.07,-9.35 -6.11,-12.94 -3.86,-3.59 -8.54,-5.39 -14.02,-5.39l-4.31 0 0 -3.6 99.23 0 0 3.6 -4.32 0c-5.3,0 -9.97,1.8 -14.02,5.39 -3.86,3.41 -5.93,7.55 -6.11,12.58l0 166.1c0.18,5.3 2.25,9.71 6.11,13.31 4.05,3.41 8.72,5.03 14.02,5.03l4.32 0 0 3.6 -99.23 0 0 -3.6zm0 0z"/>
   </g>
   <g>
    <path class="fil3" d="M1426.61 324.58l0 -3.6 4.32 0c5.21,0 9.71,-1.62 13.3,-5.03 3.6,-3.6 5.39,-7.91 5.39,-12.95l0 -166.1c0,-5.04 -1.97,-9.35 -5.75,-12.94 -3.59,-3.59 -7.9,-5.39 -12.94,-5.39l-4.32 0 0 -3.6 97.08 0 0 3.6 -3.96 0c-5.57,0 -10.24,1.8 -14.02,5.39 -3.59,3.41 -5.39,7.73 -5.39,12.94l0 173.65 42.07 0c14.37,-0.18 26.6,-4.67 36.67,-13.3 10.06,-8.81 17.34,-21.21 21.92,-37.03l3.96 0 -13.66 64.36 -164.67 0zm0 0z"/>
   </g>
   <g>
    <path class="fil3" d="M1823.67 142.65c21.3,18.52 32,44.13 32,76.94 0,32.9 -10.7,58.61 -32,77.3 -21.12,18.52 -50.33,27.69 -87.72,27.69l-118.28 0 0 -3.6 4.67 0c5.22,0 9.71,-1.8 13.3,-5.39 3.78,-3.78 5.85,-8.27 6.12,-13.31l0 -165.74c-0.55,-5.03 -2.7,-9.17 -6.48,-12.58 -3.59,-3.59 -8.08,-5.39 -13.3,-5.39l-4.31 0 0 -3.6 118.28 0c37.39,0 66.6,9.26 87.72,27.68zm-92.04 167.9c21.76,0 39.01,-8 51.78,-24.08 12.67,-16 19.05,-38.21 19.05,-66.52 0,-28.49 -6.38,-50.78 -19.05,-66.87 -12.77,-16.27 -30.02,-24.45 -51.78,-24.45l-39.54 0 0 181.92 39.54 0zm0 0z"/>
   </g>
   <g>
    <path class="fil3" d="M1879.29 320.98l4.32 0c5.48,0 10.16,-1.8 14.02,-5.39 4.04,-3.6 6.11,-7.91 6.11,-12.95l0 -165.74c0,-5.04 -2.07,-9.35 -6.11,-12.94 -3.86,-3.59 -8.54,-5.39 -14.02,-5.39l-4.32 0 0 -3.6 99.23 0 0 3.6 -4.31 0c-5.3,0 -9.98,1.8 -14.02,5.39 -3.87,3.41 -5.93,7.55 -6.12,12.58l0 166.1c0.19,5.3 2.25,9.71 6.12,13.31 4.04,3.41 8.72,5.03 14.02,5.03l4.31 0 0 3.6 -99.23 0 0 -3.6zm0 0z"/>
   </g>
   <g>
    <path class="fil3" d="M2157.56 114.97l98.15 0 0 3.6 -6.11 0c-5.3,0 -9.71,1.7 -13.31,5.03 -3.59,3.14 -5.57,7.19 -5.75,12.22l0 152.8c0,14.38 0.9,26.24 2.88,35.59l0.35 5.04 -2.87 0 -160.35 -141.66 0 115.77c0.18,5.03 2.16,9.26 5.75,12.59 3.6,3.41 8.01,5.03 13.31,5.03l6.11 0 0 3.6 -98.15 0 0 -3.6 5.75 0c5.22,0 9.71,-1.62 13.3,-5.03 3.78,-3.33 5.76,-7.56 5.76,-12.59l0 -153.88c0,-13.84 -0.9,-25.34 -2.52,-34.51l-0.72 -5.03 2.88 0.36 160.35 140.93 0 -115.05c0,-5.03 -1.98,-9.17 -5.76,-12.58 -3.59,-3.33 -8.09,-5.03 -13.3,-5.03l-5.75 0 0 -3.6zm0 0z"/>
   </g>
   <g>
    <path class="fil3" d="M2305.62 299.76c-20.85,-19.59 -31.28,-46.37 -31.28,-80.17 0,-33.97 10.43,-60.76 31.28,-80.17 20.85,-19.42 49.62,-29.12 86.28,-29.12 16.27,0 32.36,1.44 48.18,4.31 15.82,2.88 28.58,6.83 38.47,11.87l0 55.36 -2.88 0c-10.34,-38.29 -34.78,-57.52 -73.34,-57.52 -24.27,0 -42.69,8.54 -55.37,25.53 -12.76,16.8 -19.05,40.26 -19.05,70.46 0,30.2 5.75,53.57 17.25,70.11 11.51,16.54 27.78,24.8 48.9,24.8 11.68,0 22.29,-2.69 31.64,-8.26 9.35,-5.49 15.46,-13.4 18.34,-23.73l0.36 -41.7c0,-4.5 -1.35,-8.01 -3.96,-10.43 -2.7,-2.34 -6.38,-3.6 -11.14,-3.6l-5.04 0 0 -2.87 89.88 0 0 2.87 -4.31 0c-10.34,0 -15.46,4.67 -15.46,14.03l0 46.73c-8.18,10.6 -21.93,20.04 -41.34,28.4 -19.24,8.36 -40.27,12.59 -63.28,12.59 -35.24,-0.27 -63.28,-10.07 -84.13,-29.49zm0 0z"/>
   </g>
   <g>
    <path class="fil3" d="M2746.43 80.1c41.16,0 73.79,10.96 97.79,32.71 23.91,21.85 35.95,51.69 35.95,89.52 0,37.66 -12.04,67.5 -35.95,89.53 -24,21.84 -56.63,32.72 -97.79,32.72l-126.91 0 0 -3.6 4.31 0c6.2,0 11.5,-2.16 15.82,-6.47 4.31,-4.32 6.56,-9.44 6.83,-15.46l0 -195.58c0,-5.76 -2.33,-10.52 -6.83,-14.39 -4.58,-3.77 -9.89,-5.75 -15.82,-5.75l-4.31 0 0 -3.23 126.91 0zm-4.68 229.37c16.73,0 31.28,-4.31 43.51,-12.94 12.22,-8.63 21.57,-20.94 28.04,-37.03 6.65,-16.27 10.07,-33.89 10.07,-52.85 0,-19.14 -2.07,-35.42 -6.11,-48.9 -3.87,-13.39 -9.26,-24.8 -16.19,-34.15 -14.37,-19.42 -34.15,-29.12 -59.32,-29.12l-43.14 0 0 214.99 43.14 0zm0 0z"/>
   </g>
   <g>
    <path class="fil3" d="M3070.52 324.58l-164.67 0 0 -3.6 4.32 0c5.21,0 9.7,-1.62 13.3,-5.03 3.59,-3.6 5.48,-7.91 5.75,-12.95l0 -166.46c-0.27,-5.03 -2.16,-9.17 -5.75,-12.58 -3.6,-3.59 -8.09,-5.39 -13.3,-5.39l-4.32 0 0 -3.6 122.96 0c6.2,0 13.03,-0.54 20.49,-1.8 7.64,-1.17 12.95,-2.33 15.82,-3.59l0 55.73 -3.23 0 0 -3.24c0,-10.25 -2.88,-18.34 -8.63,-24.09 -5.57,-5.75 -13.3,-8.72 -23.37,-8.99l-50.34 0 0 84.85 39.91 0c7.91,-0.18 14.2,-2.88 19.06,-7.91 5.03,-5.21 7.55,-11.87 7.55,-19.77l0 -2.52 3.59 0 0 74.06 -3.59 0 0 -2.16c0,-10.96 -4.14,-19.05 -12.23,-24.08 -4.31,-2.34 -8.99,-3.6 -14.02,-3.6l-40.27 0 0 82.69 42.07 0c14.38,-0.18 26.6,-4.67 36.67,-13.3 10.25,-8.81 17.7,-21.21 22.29,-37.03l3.23 0 -13.29 64.36zm0 0z"/>
   </g>
   <g>
    <path class="fil3" d="M3390.84 320.98l5.03 0 0 3.6 -97.43 0 0 -3.6 5.04 0c4.31,0 7.37,-1.44 9.34,-4.32 2.16,-3.05 2.97,-6.29 2.52,-9.7l-13.66 -99.95 -55.37 88.44c-8.45,13.49 -12.58,25.35 -12.58,35.6l-3.24 0 -80.89 -122.25 -11.86 98.16c-0.55,3.41 0.35,6.65 2.51,9.7 2.16,2.88 5.21,4.32 9.35,4.32l5.04 0 0 3.6 -66.52 0 0 -3.6 5.03 0c5.76,0 10.79,-1.62 15.1,-5.03 4.32,-3.33 6.83,-7.91 7.55,-13.67l27.33 -191.98 2.88 0 98.86 147.76 92.4 -147.76 3.23 0 28.05 193.78c1.17,5.31 3.78,9.53 7.91,12.58 4.31,2.88 9.08,4.32 14.38,4.32zm0 0z"/>
   </g>
   <g>
    <path class="fil3" d="M3404.29 219.59c0,-33.52 11.24,-60.13 33.8,-79.81 22.47,-19.6 52.5,-29.48 89.88,-29.48 37.39,0 67.33,9.88 89.89,29.48 22.47,19.68 33.79,46.29 33.79,79.81 0,33.62 -11.32,60.31 -33.79,80.17 -22.56,19.69 -52.5,29.49 -89.89,29.49 -37.21,0 -67.14,-9.8 -89.88,-29.49 -22.56,-19.86 -33.8,-46.55 -33.8,-80.17zm53.58 0.36c0,29.31 6.29,52.49 19.05,69.75 12.67,17.08 29.66,25.52 51.05,25.52 21.3,0 38.29,-8.44 51.06,-25.52 12.67,-17.26 19.05,-40.44 19.05,-69.75 0,-29.48 -6.38,-52.67 -19.05,-69.74 -12.77,-17.26 -29.76,-25.89 -51.06,-25.89 -21.39,0 -38.38,8.63 -51.05,25.89 -12.76,17.07 -19.05,40.26 -19.05,69.74zm0 0z"/>
   </g>
   <g>
    <path class="fil3" d="M3801.17 329.25c-39.1,-0.27 -69.93,-9.89 -92.4,-29.13 -22.29,-19.41 -33.44,-46.1 -33.44,-80.17 0,-34.24 11.15,-61.12 33.44,-80.53 22.29,-19.42 53.03,-29.12 92.4,-29.12 30.65,0 56.89,5.39 78.73,16.18l0 55.36 -2.51 0c-5.75,-20.58 -14.74,-35.32 -26.97,-44.22 -12.22,-8.81 -27.5,-13.3 -45.66,-13.3 -24.72,0 -43.68,8.54 -56.8,25.53 -12.95,16.8 -19.42,39.81 -19.42,69.02 0,29.3 6.3,52.5 19.06,69.75 13.39,17.8 31.46,26.6 54.29,26.6 16.54,0 30.02,-2.51 40.62,-7.54 10.79,-5.22 19.24,-13.49 25.53,-24.81 6.47,-11.24 11.14,-26.6 14.02,-46.02l2.52 0 4.31 52.85c-7.19,11.77 -18.24,21.39 -33.08,28.76 -14.91,7.19 -33.07,10.79 -54.64,10.79zm0 0z"/>
   </g>
   <g>
    <path class="fil3" d="M4000.55 129.35l-11.14 0 0 173.29c0,5.58 1.89,9.98 5.75,13.31 3.78,3.41 8.09,5.03 12.95,5.03l3.95 0 0 3.6 -95.99 0 0 -3.6 4.31 0c5.03,0 9.35,-1.62 12.94,-5.03 3.6,-3.6 5.39,-7.91 5.39,-12.95l0 -166.46c0,-5.03 -1.79,-9.17 -5.39,-12.58 -3.59,-3.59 -7.91,-5.39 -12.94,-5.39l-4.31 0 0 -3.6 107.14 0c21.02,0 38.64,4.14 52.85,12.22 15.81,9.17 23.72,24.09 23.72,44.94 0,13.67 -4.13,25.89 -12.22,36.67 -8.18,10.79 -20.32,17.44 -36.31,19.78 6.2,1.98 12.4,5.93 18.69,11.86 6.2,5.76 11.15,11.69 14.75,17.62 7.37,13.48 15.18,25.71 23.36,36.68 8.09,11.04 14.74,18.24 19.77,21.57 5.04,3.14 11.15,4.67 18.34,4.67l0 3.6 -29.12 0c-19.41,0 -34.34,-2.25 -44.58,-6.84 -10.34,-4.76 -19.6,-13.66 -27.69,-26.6 -12.76,-20.14 -20.66,-36.05 -23.72,-47.82 -2.7,-6.92 -5.93,-12.04 -9.71,-15.46 -3.87,-3.59 -7.55,-5.57 -11.15,-6.11l0 -2.88 8.63 0c19.86,-0.18 32,-11.86 36.31,-34.87 0.9,-3.33 1.45,-6.3 1.45,-8.99 0,-2.61 -0.19,-6.2 -0.36,-10.79 -0.28,-4.49 -1.71,-9.52 -4.32,-15.1 -2.7,-5.75 -6.02,-9.89 -10.07,-12.58 -7.46,-4.31 -15.01,-6.56 -22.65,-6.83 -2.42,-0.18 -5.3,-0.36 -8.63,-0.36zm0 0z"/>
   </g>
   <g>
    <path class="fil3" d="M4363.78 320.98l2.88 0 0 3.6 -102.83 0 0 -3.6 2.88 0c4.76,0 8.08,-1.26 10.07,-3.96 2.15,-2.87 3.23,-5.39 3.23,-7.55 0,-2.34 -0.54,-4.85 -1.44,-7.55l-13.66 -32.35 -74.07 0 -14.01 32.71c-0.99,2.43 -1.44,4.85 -1.44,7.19 0,2.43 1.08,4.94 3.23,7.55 2.34,2.7 5.85,3.96 10.43,3.96l2.88 0 0 3.6 -69.75 0 0 -3.6 2.87 0c4.86,0 9.53,-1.44 14.38,-4.32 5.04,-3.05 8.99,-7.63 11.87,-13.66l72.63 -155.31c10.06,-23.01 15.27,-37.12 15.81,-42.43l3.24 0 93.84 196.3c2.87,6.74 6.82,11.69 11.86,14.75 5.04,3.14 10.06,4.67 15.1,4.67zm-166.82 -65.08l62.2 0 -30.92 -72.98 -31.28 72.98zm0 0z"/>
   </g>
   <g>
    <path class="fil3" d="M4493.8 329.25c-39.09,-0.27 -69.92,-9.89 -92.39,-29.13 -22.29,-19.41 -33.44,-46.1 -33.44,-80.17 0,-34.24 11.15,-61.12 33.44,-80.53 22.29,-19.42 53.03,-29.12 92.39,-29.12 30.65,0 56.9,5.39 78.74,16.18l0 55.36 -2.52 0c-5.75,-20.58 -14.74,-35.32 -26.96,-44.22 -12.22,-8.81 -27.5,-13.3 -45.66,-13.3 -24.72,0 -43.68,8.54 -56.81,25.53 -12.94,16.8 -19.41,39.81 -19.41,69.02 0,29.3 6.29,52.5 19.06,69.75 13.39,17.8 31.45,26.6 54.29,26.6 16.53,0 30.01,-2.51 40.62,-7.54 10.79,-5.22 19.23,-13.49 25.53,-24.81 6.47,-11.24 11.15,-26.6 14.02,-46.02l2.52 0 4.31 52.85c-7.19,11.77 -18.24,21.39 -33.07,28.76 -14.93,7.19 -33.08,10.79 -54.66,10.79zm0 0z"/>
   </g>
   <g>
    <path class="fil3" d="M4828.37 118.57l-4.31 0c-6.29,0 -12.13,1.7 -17.62,5.03 -5.3,3.14 -9.7,7.1 -13.3,11.87l-62.2 95.63 0 71.54c0.18,5.04 2.16,9.35 5.75,12.95 3.78,3.59 8.46,5.39 14.03,5.39l3.95 0 0 3.6 -97.79 0 0 -3.6 4.32 0c5.21,0 9.7,-1.8 13.29,-5.39 3.78,-3.6 5.85,-7.91 6.12,-12.95l0 -71.54 -61.84 -95.63c-3.41,-5.04 -7.82,-9.08 -13.3,-12.23 -5.31,-3.06 -11.06,-4.67 -17.26,-4.67l-4.31 0 0 -3.6 106.06 0 0 3.6 -3.6 0c-4.58,0 -7.82,1.43 -9.71,4.31 -1.97,2.87 -2.87,5.3 -2.87,7.19 0,1.98 0.45,3.78 1.44,5.4l46.37 80.53 47.1 -80.53c0.72,-1.62 1.08,-3.42 1.08,-5.4 0,-1.89 -1.08,-4.32 -3.24,-7.19 -1.97,-2.88 -5.03,-4.31 -9.34,-4.31l-3.6 0 0 -3.6 74.78 0 0 3.6zm0 0z"/>
   </g>
   <g>
    <path class="fil4" d="M2179.12 483.61l0 21.57 -2.51 0 0 -3.96c0,-3.32 -1.26,-6.2 -3.6,-8.63 -2.42,-2.6 -5.39,-3.95 -8.99,-3.95l-54.64 0 0 79.82 43.86 0c3.33,-0.19 6.21,-1.53 8.63,-3.96 2.34,-2.34 3.6,-5.22 3.6,-8.63l0 -3.96 2.51 0 0 40.99 -2.51 0 0 -3.95c0,-3.33 -1.26,-6.2 -3.6,-8.63 -2.16,-2.61 -5.03,-3.95 -8.63,-3.95l-43.86 0 0 66.51c0,4.31 1.62,8.18 5.03,11.5 3.32,3.15 7.19,4.68 11.5,4.68l3.6 0 0 2.51 -56.81 0 0 -2.51 3.25 0c4.49,0 8.35,-1.53 11.49,-4.68 3.33,-3.32 5.13,-7.19 5.4,-11.5l0 -144.89c0,-4.05 -1.8,-7.55 -5.4,-10.43 -3.41,-2.87 -7.18,-4.31 -11.49,-4.31l-2.88 0 -0.37 -2.52 75.87 0c5.21,0 10.96,-0.45 17.25,-1.44 6.47,-1.16 10.88,-2.25 13.3,-3.23l0 7.55zm0 0z"/>
   </g>
   <g>
    <path class="fil4" d="M2253.25 513.09c13.39,-6.66 28.05,-10.07 43.86,-10.07 16,0 30.65,3.41 43.87,10.07 13.39,6.74 23.9,16.35 31.64,28.76 7.9,12.49 11.86,26.61 11.86,42.42 0,15.64 -3.96,29.67 -11.86,42.07 -7.74,12.22 -18.25,21.84 -31.64,28.76 -13.22,6.65 -26.79,10.07 -40.63,10.07 -13.93,0 -26.25,-1.98 -37.03,-5.75 -10.79,-4.05 -20.13,-9.53 -28.04,-16.54 -7.73,-7.19 -13.85,-15.82 -18.34,-25.89 -4.58,-10.25 -6.83,-22.29 -6.83,-35.95 0,-13.66 3.77,-26.7 11.51,-39.19 7.9,-12.41 18.42,-22.02 31.63,-28.76zm-4.67 123.67c13.12,13.67 29.3,20.5 48.53,20.5 19.42,0 35.6,-6.83 48.54,-20.5 13.12,-13.66 19.77,-31.28 19.77,-52.85 0,-21.57 -6.65,-39.18 -19.77,-52.85 -12.94,-13.66 -29.12,-20.49 -48.54,-20.49 -19.23,0 -35.41,6.83 -48.53,20.49 -12.95,13.67 -19.42,31.28 -19.42,52.85 0,21.57 6.47,39.19 19.42,52.85zm0 0z"/>
   </g>
   <g>
    <path class="fil4" d="M2569.2 509.13l-3.96 0c-4.58,0 -8.08,1.8 -10.42,5.4 -0.99,1.43 -1.62,3.23 -1.8,5.39l0 87c0,17.98 -5.75,32.27 -17.26,42.79 -11.5,10.33 -27.32,15.46 -47.45,15.46 -19.96,0 -35.6,-5.13 -47.1,-15.46 -11.51,-10.25 -17.26,-24.45 -17.26,-42.43l0 -87c0,-3.06 -1.26,-5.75 -3.6,-7.91 -2.42,-2.16 -5.3,-3.24 -8.62,-3.24l-3.96 0 0 -2.51 48.9 0 0 2.51 -3.6 0c-3.59,0 -6.65,1.08 -8.99,3.24 -2.42,2.16 -3.59,4.85 -3.59,7.91l0 83.77c0,16.81 4.13,30.11 12.58,39.9 8.63,9.62 20.68,14.38 36.31,14.38 15.55,0 28.05,-4.49 37.39,-13.65 9.53,-9.36 14.39,-21.94 14.39,-37.76l0 -86.64c-0.27,-3.33 -1.62,-5.93 -3.96,-7.91 -2.15,-2.16 -5.03,-3.24 -8.63,-3.24l-3.95 0 0 -2.51 44.58 0 0 2.51zm0 0z"/>
   </g>
   <g>
    <path class="fil4" d="M2766.42 509.13c-3.87,0 -7.19,1.35 -10.07,3.96 -2.69,2.42 -4.13,5.39 -4.31,8.98l0 110.02c0,10.07 0.53,19.6 1.79,28.4l0.73 4.68 -2.52 0 -134.47 -127.27 0 107.49c0,3.87 1.26,7.11 3.96,9.71 2.88,2.7 6.29,3.96 10.43,3.96l4.31 0 0 2.51 -48.9 0 0 -2.51 4.32 0c4.05,0 7.37,-1.26 10.07,-3.96 2.87,-2.6 4.31,-5.84 4.31,-9.71l0 -110.37c0,-10.52 -0.63,-19.96 -1.8,-28.4l-0.71 -3.96 2.87 0.36 134.46 126.19 0 -107.14c-0.54,-3.59 -2.16,-6.56 -5.03,-8.98 -2.7,-2.61 -5.93,-3.96 -9.71,-3.96l-4.31 0 0 -2.51 48.89 0 0 2.51 -4.31 0zm0 0z"/>
   </g>
   <g>
    <path class="fil4" d="M2963.22 583.91c0,24 -7.46,42.97 -22.29,56.81 -14.92,13.93 -35.06,20.85 -60.41,20.85l-86.28 0 0 -2.51 3.23 0c4.05,0 7.37,-1.26 10.07,-3.96 2.88,-2.88 4.41,-6.2 4.68,-10.06l0 -121.88c-0.27,-4.32 -1.8,-7.65 -4.68,-10.07 -2.87,-2.61 -6.38,-3.96 -10.42,-3.96l-2.88 0 0 -2.51 86.28 0c16.72,0 31.38,3.14 43.87,9.34 12.4,6.02 22.02,14.93 28.76,26.61 6.65,11.77 10.07,25.53 10.07,41.34zm-134.11 -69.74l0 139.49 51.41 0c19.6,0 35.24,-6.2 46.74,-18.7 11.69,-12.39 17.62,-29.48 17.62,-51.05 0,-21.57 -5.93,-38.56 -17.62,-51.05 -11.5,-12.4 -27.14,-18.69 -46.74,-18.69l-51.41 0zm0 0z"/>
   </g>
   <g>
    <path class="fil4" d="M3147.19 659.06l1.8 0 0 2.51 -52.85 0 0 -2.51 2.15 0c3.06,0 5.49,-1.08 7.2,-3.24 1.88,-2.34 2.88,-4.5 2.88,-6.47 0,-1.89 -0.36,-3.78 -1.09,-5.76l-14.37 -34.51 -65.44 0 -14.02 33.8c-0.99,2.16 -1.44,4.22 -1.44,6.11 0,1.97 0.81,4.13 2.52,6.47 1.88,2.42 4.49,3.6 7.91,3.6l2.15 0 0 2.51 -49.61 0 0 -2.51 2.15 0c3.6,0 7.2,-1.18 10.79,-3.6 3.78,-2.6 6.92,-6.47 9.35,-11.51 37.84,-80.53 57.53,-122.68 58.96,-126.55 2.88,-7.19 4.4,-11.95 4.68,-14.38l2.52 0 63.63 140.93c5.03,10.07 11.69,15.11 20.13,15.11zm-116.12 -57.89l58.96 0 -29.12 -70.83 -29.84 70.83zm0 0z"/>
   </g>
   <g>
    <path class="fil4" d="M3231.3 513.8l0 131.59c0,5.31 2.52,9.26 7.55,11.87 2.15,1.26 4.67,1.8 7.55,1.8l2.88 0 0 2.51 -53.21 0 0 -2.51 2.87 0c4.32,0 7.91,-1.26 10.79,-3.96 2.88,-2.88 4.4,-6.2 4.67,-10.06l0 -131.24 -46.73 0c-4.14,0 -7.37,1.35 -9.71,3.96 -2.16,2.7 -3.24,5.76 -3.24,9.35l0 4.31 -2.88 0 0 -29.48c3.33,1.44 8.09,2.52 14.39,3.24 6.47,0.72 11.23,1.08 14.38,1.08l84.12 0c12.41,0 22.11,-1.44 29.13,-4.32l0 29.48 -2.88 0 0 -4.31c0,-3.59 -1.35,-6.65 -3.95,-9.35 -2.43,-2.61 -5.4,-3.96 -8.99,-3.96l-46.74 0zm0 0z"/>
   </g>
   <g>
    <path class="fil4" d="M3315.35 659.06c4.5,0 8.45,-1.26 11.87,-3.96 3.59,-2.88 5.39,-6.2 5.39,-10.06l0 -121.88c0,-3.78 -1.8,-7.01 -5.39,-9.71 -3.42,-2.88 -7.46,-4.32 -12.22,-4.32l-3.24 0 0 -2.51 58.25 0 0 2.51 -3.25 0c-4.85,0 -8.89,1.35 -12.22,3.96 -3.41,2.42 -5.21,5.57 -5.39,9.34l0 122.96c0.18,3.87 1.98,7.11 5.39,9.71 3.33,2.7 7.37,3.96 12.22,3.96l3.25 0 0.35 2.51 -58.6 0 0 -2.51 3.59 0zm0 0z"/>
   </g>
   <g>
    <path class="fil4" d="M3440.36 513.09c13.39,-6.66 28.05,-10.07 43.87,-10.07 16,0 30.64,3.41 43.86,10.07 13.39,6.74 23.9,16.35 31.63,28.76 7.91,12.49 11.87,26.61 11.87,42.42 0,15.64 -3.96,29.67 -11.87,42.07 -7.73,12.22 -18.24,21.84 -31.63,28.76 -13.22,6.65 -26.79,10.07 -40.63,10.07 -13.93,0 -26.25,-1.98 -37.03,-5.75 -10.78,-4.05 -20.13,-9.53 -28.04,-16.54 -7.73,-7.19 -13.84,-15.82 -18.34,-25.89 -4.58,-10.25 -6.83,-22.29 -6.83,-35.95 0,-13.66 3.77,-26.7 11.5,-39.19 7.91,-12.41 18.43,-22.02 31.64,-28.76zm-4.67 123.67c13.13,13.67 29.3,20.5 48.54,20.5 19.41,0 35.59,-6.83 48.53,-20.5 13.12,-13.66 19.77,-31.28 19.77,-52.85 0,-21.57 -6.65,-39.18 -19.77,-52.85 -12.94,-13.66 -29.12,-20.49 -48.53,-20.49 -19.24,0 -35.41,6.83 -48.54,20.49 -12.94,13.67 -19.41,31.28 -19.41,52.85 0,21.57 6.47,39.19 19.41,52.85zm0 0z"/>
   </g>
   <g>
    <path class="fil4" d="M3772.49 509.13c-3.87,0 -7.19,1.35 -10.07,3.96 -2.69,2.42 -4.14,5.39 -4.31,8.98l0 110.02c0,10.07 0.54,19.6 1.8,28.4l0.72 4.68 -2.52 0 -134.47 -127.27 0 107.49c0,3.87 1.26,7.11 3.96,9.71 2.88,2.7 6.29,3.96 10.42,3.96l4.32 0 0 2.51 -48.9 0 0 -2.51 4.32 0c4.05,0 7.37,-1.26 10.07,-3.96 2.87,-2.6 4.31,-5.84 4.31,-9.71l0 -110.37c0,-10.52 -0.63,-19.96 -1.8,-28.4l-0.71 -3.96 2.87 0.36 134.46 126.19 0 -107.14c-0.54,-3.59 -2.16,-6.56 -5.03,-8.98 -2.7,-2.61 -5.93,-3.96 -9.71,-3.96l-4.31 0 0 -2.51 48.89 0 0 2.51 -4.31 0zm0 0z"/>
   </g>
  </g>
 </g>
</svg>
