<?xml version="1.0" encoding="UTF-8"?>
<!DOCTYPE svg PUBLIC "-//W3C//DTD SVG 1.1//EN" "http://www.w3.org/Graphics/SVG/1.1/DTD/svg11.dtd">
<!-- Creator: CorelDRAW 2017 -->
<svg xmlns="http://www.w3.org/2000/svg" xml:space="preserve" width="27mm" height="27mm" version="1.1" style="shape-rendering:geometricPrecision; text-rendering:geometricPrecision; image-rendering:optimizeQuality; fill-rule:evenodd; clip-rule:evenodd"
viewBox="0 0 2700 2700"
 xmlns:xlink="http://www.w3.org/1999/xlink">
 <defs>
  <style type="text/css">
   <![CDATA[
    .str0 {stroke:black;stroke-width:150;stroke-miterlimit:22.9256}
    .fil1 {fill:none}
    .fil0 {fill:black}
   ]]>
  </style>
 </defs>
 <g id="Слой_x0020_1">
  <metadata id="CorelCorpID_0Corel-Layer"/>
  <g id="_2089178797104">
   <path class="fil0" d="M1279.89 1814.26l-109.33 0 90.67 -394.65c101.78,0 235.24,9.53 318.88,-22.47 86.32,-33 132.61,-87.85 174.43,-166.86 23.61,15.8 38.64,33.75 53.5,58.5 52.93,88.13 26.46,209.87 -61.99,266.31 -63.77,40.68 -111.14,32.51 -210.17,32.51 -39.99,0 -79.98,0 -120,0 -74.88,0 -81.61,6.43 -99.72,78.93l-36.27 147.73zm8 -512c0.79,-9.4 3.68,-16.75 5.89,-26.1 2,-8.39 3.87,-18.34 6.39,-28.28l11.71 -57.6 333.33 0c-29.07,54.96 -65.3,88.5 -128.23,106.41 -41.95,11.93 -172.01,5.57 -229.09,5.57zm-197.33 341.33l-93.32 0 146.4 -736.02c57.15,0.04 114.04,0.04 170.91,0.04 54.87,0 116.73,-2.71 170.69,-0.02 63.99,3.18 127.07,47.84 154.68,101.31 8.79,17.03 21.29,41.2 21.29,66.7l-394.65 0c-59.17,0 -61.47,73.12 -71.45,115.22 -6.1,25.85 -10.96,49.54 -17.61,75.73 -18.83,73.94 -34.35,148.68 -51.6,223.05 -10.98,52.2 -23.39,102.71 -35.34,153.99zm-221.31 58.67c0,41.24 30.12,58.76 69.23,58.76 41.8,0 83.62,-0.08 125.41,-0.08 -4.36,9.07 -23.99,96.95 -23.99,117.33 0,33.18 30.77,53.32 66.67,53.32l207.98 0c64.76,0 65.92,-44.96 77.88,-92.8 11.09,-44.4 23.58,-91.25 34.12,-136.53 47.79,0 205.74,2.5 239.88,-0.13 63.36,-4.86 124.86,-34.16 171.19,-71.47 144.46,-116.34 159.28,-354.95 -8.04,-488.75 -10.73,-8.58 -22.83,-17.38 -35.11,-23.55 -15.16,-7.63 -14.13,-8.68 -16,-45.34 -1.63,-32.02 -15.07,-72.01 -25.8,-96.86 -11.54,-26.73 -28.9,-52.87 -46.72,-73.28 -64.16,-73.53 -140.79,-112.6 -252.72,-112.6l-346.66 0c-22.79,0 -39.54,6.21 -51.34,18 -13.01,12.96 -15.14,30.38 -19.54,52.44 -15.51,77.51 -166.44,815.7 -166.44,841.54z"/>
   <path class="fil1 str0" d="M1335.4 151.62c662.74,0 1200,537.26 1200,1200 0,662.74 -537.26,1200 -1200,1200 -662.74,0 -1200,-537.26 -1200,-1200 0,-662.74 537.26,-1200 1200,-1200z"/>
  </g>
 </g>
</svg>
